<svg xmlns="http://www.w3.org/2000/svg" width="256" height="256" viewBox="0 0 256 256" role="img" aria-labelledby="ltitle">
  <title id="ltitle">RadioGeddon logo</title>
  <defs>
    <linearGradient id="lsig" x1="0" y1="0" x2="1" y2="0">
      <stop offset="0" stop-color="#22D3EE"/>
      <stop offset="0.55" stop-color="#60A5FA"/>
      <stop offset="1" stop-color="#A855F7"/>
    </linearGradient>
    <linearGradient id="ledge" x1="0" y1="0" x2="1" y2="1">
      <stop offset="0" stop-color="#22D3EE" stop-opacity="0.85"/>
      <stop offset="1" stop-color="#7C3AED" stop-opacity="0.85"/>
    </linearGradient>
    <radialGradient id="lglow" cx="0.5" cy="0.5" r="0.5">
      <stop offset="0" stop-color="#22D3EE" stop-opacity="0.35"/>
      <stop offset="1" stop-color="#22D3EE" stop-opacity="0"/>
    </radialGradient>
  </defs>
  <rect x="4" y="4" width="248" height="248" rx="56" fill="#0B1426" stroke="url(#ledge)" stroke-width="3"/>
  <circle cx="128" cy="121" r="104" fill="url(#lglow)"/>
  <path d="M48,52 V204 M44,52 H212 M88,52 V204 M44,92 H212 M128,52 V204 M44,132 H212 M168,52 V204 M44,172 H212 M208,52 V204 M44,212 H212" stroke="#1B2C4A" stroke-width="1.6" fill="none" opacity="0.9"/>
  <path d="M38,150 L58,150 L58,92 L74,92 L74,150 L96,150 L96,92 L132,92 L132,150 L133.71,149.43 L135.42,148.12 L137.12,146.1 L138.83,143.43 L140.54,140.2 L142.25,136.51 L143.96,132.44 L145.67,128.13 L147.38,123.68 L149.08,119.22 L150.79,114.87 L152.5,110.73 L154.21,106.93 L155.92,103.55 L157.62,100.68 L159.33,98.4 L161.04,96.74 L162.75,95.76 L164.46,95.46 L166.17,95.84 L167.88,96.89 L169.58,98.57 L171.29,100.82 L173,103.57 L174.71,106.75 L176.42,110.26 L178.12,114 L179.83,117.88 L181.54,121.78 L183.25,125.6 L184.96,129.24 L186.67,132.6 L188.38,135.6 L190.08,138.17 L191.79,140.24 L193.5,141.76 L195.21,142.71 L196.92,143.07 L198.62,142.83 L200.33,142.01 L202.04,140.65 L203.75,138.78 L205.46,136.48 L207.17,133.8 L208.88,130.83 L210.58,127.64 L212.29,124.34 L214,121" fill="none" stroke="url(#lsig)" stroke-width="13" stroke-linecap="round" stroke-linejoin="round"/>
  <circle cx="214" cy="121" r="10" fill="#A855F7" stroke="#0B1426" stroke-width="3"/>
  <path d="M54,212 V202 M67.5,212 V194 M81,212 V200 M94.5,212 V186 M108,212 V196 M121.5,212 V178 M135,212 V190 M148.5,212 V198 M162,212 V184 M175.5,212 V194 M189,212 V202 M202.5,212 V192" stroke="url(#lsig)" stroke-width="5" stroke-linecap="round" opacity="0.55"/>
</svg>
